<svg xmlns="http://www.w3.org/2000/svg" width="375.432" height="21.854" viewBox="0 0 375.432 21.854">
  <g id="Layer_2" data-name="Layer 2" transform="translate(0 -0.004)">
    <g id="Layer_1" data-name="Layer 1" transform="translate(0 0.004)">
      <path id="Path_4" data-name="Path 4" d="M0,5.94H4.252v9.58c.118-.184,1.091-1.474,1.791-2.255l6.256-7.3h4.945l-6.861,7.819,7.708,9.337H13.117L7.775,16.493l-3.522,3.8v2.837H0Z" transform="translate(0 -1.566)" fill="#fff"/>
      <path id="Path_5" data-name="Path 5" d="M50.683,5.94h4.186L63.4,23.125H59.121L57.787,20.4H47.794l-1.341,2.727H42.12ZM56.453,17.5l-2.277-4.886c-.612-1.3-1.371-3.021-1.4-3.073s-.789,1.754-1.393,3.073L49.106,17.5Z" transform="translate(-11.081 -1.566)" fill="#fff"/>
      <path id="Path_6" data-name="Path 6" d="M186.94,5.94h4.193L199.7,23.125h-4.311L194.052,20.4H184.044l-1.334,2.727h-4.34ZM192.71,17.5l-2.292-4.886c-.6-1.3-1.363-3.021-1.393-3.073s-.789,1.776-1.4,3.073l-2.277,4.908Z" transform="translate(-46.925 -1.566)" fill="#fff"/>
      <path id="Path_7" data-name="Path 7" d="M90.83,5.94h8.438c5.8,0,8.843,2.948,8.843,6.632a6.087,6.087,0,0,1-3.729,5.468l4.1,5.063h-4.893l-3.051-4.009a11.533,11.533,0,0,1-1.665.133H95.082v3.9H90.83Zm8.563,10.1c2.491,0,4.223-1.562,4.223-3.449s-1.732-3.5-4.193-3.5h-4.34v6.949Z" transform="translate(-23.895 -1.566)" fill="#fff"/>
      <path id="Path_8" data-name="Path 8" d="M137.48,5.94h4.252V19.986h11.385v3.176H137.48Z" transform="translate(-36.168 -1.566)" fill="#fff"/>
      <path id="Path_9" data-name="Path 9" d="M224.87,5.94h4.348l4.311,10.052c.42.98,1.15,2.889,1.179,3.029.059-.14.737-2.049,1.186-3.029l4.37-10.052h4.311l-7.649,17.214H232.5Z" transform="translate(-59.159 -1.566)" fill="#fff"/>
      <path id="Path_10" data-name="Path 10" d="M277.763,4.378h4.186l8.563,17.185H286.2l-1.334-2.727h-9.993l-1.334,2.727H269.2ZM275.029,1.7a1.96,1.96,0,0,1,3.884,0,1.96,1.96,0,0,1-3.884,0Zm8.5,14.245-2.277-4.886c-.6-1.3-1.363-3.021-1.393-3.073s-.789,1.776-1.4,3.073l-2.277,4.908ZM280.843,1.7a1.96,1.96,0,0,1,3.884,0,1.96,1.96,0,0,1-3.884,0Z" transform="translate(-70.821 -0.004)" fill="#fff"/>
      <path id="Path_11" data-name="Path 11" d="M315.85,14.443c0-4.908,4.311-8.843,10.383-8.843a11.562,11.562,0,0,1,6.986,2.211l-2.646,2.506a6.522,6.522,0,0,0-4.252-1.356c-3.427,0-6.043,2.439-6.043,5.49s2.557,5.52,6.043,5.52a6.632,6.632,0,0,0,4.525-1.724V15.717h-3.338v-2.7h7.229V19.7c-1.732,2.255-4.923,3.633-8.475,3.633C320.19,23.33,315.85,19.38,315.85,14.443Z" transform="translate(-83.094 -1.476)" fill="#fff"/>
      <path id="Path_12" data-name="Path 12" d="M364.6,5.94h15.394V9.123H368.852v3.493h10.567v3.154H368.852v4.215h11.57v3.176H364.6Z" transform="translate(-95.919 -1.566)" fill="#fff"/>
      <path id="Path_13" data-name="Path 13" d="M408.08,5.94h4.068l6.772,8.15c1.091,1.3,2.336,3.154,2.336,3.154V5.94h4.252V23.125h-4.1l-6.559-7.848c-1.3-1.54-2.52-3.368-2.52-3.368V23.125H408.08Z" transform="translate(-107.357 -1.566)" fill="#fff"/>
      <path id="Path_14" data-name="Path 14" d="M455.19,20.753c6.632-4.694,9.683-7.428,9.683-9.654,0-1.245-.943-2.307-2.881-2.307a7.435,7.435,0,0,0-4.422,1.8l-2.063-2.336a10.089,10.089,0,0,1,6.831-2.675c3.736,0,6.831,1.805,6.831,5.2,0,3.265-3.766,6.713-7.413,9.1h8.032V23.03h-14.6Z" transform="translate(-119.751 -1.471)" fill="#fff"/>
      <path id="Path_15" data-name="Path 15" d="M501.772,10.531l-4.245,2.41L495.7,10.45l6.5-4.51h3.64V23.125h-4.068Z" transform="translate(-130.408 -1.566)" fill="#fff"/>
    </g>
  </g>
</svg>
